Coordinates
version=1
nRows=17
nColumns=40
inDegrees=yes

Units are S.I. units (second, meters, Newtons, ...)
Angles are in degrees.

endheader
time	pelvis_tilt	pelvis_list	pelvis_rotation	pelvis_tx	pelvis_ty	pelvis_tz	hip_flexion_r	hip_adduction_r	hip_rotation_r	knee_angle_r	knee_angle_r_beta	ankle_angle_r	subtalar_angle_r	mtp_angle_r	hip_flexion_l	hip_adduction_l	hip_rotation_l	knee_angle_l	knee_angle_l_beta	ankle_angle_l	subtalar_angle_l	mtp_angle_l	lumbar_extension	lumbar_bending	lumbar_rotation	arm_flex_r	arm_add_r	arm_rot_r	elbow_flex_r	pro_sup_r	wrist_flex_r	wrist_dev_r	arm_flex_l	arm_add_l	arm_rot_l	elbow_flex_l	pro_sup_l	wrist_flex_l	wrist_dev_l
     48.35750000	     -4.05126709	     -3.55129976	     -2.25520877	      1.11712457	      0.93413608	      0.41812497	     34.61497098	     -8.78540001	     -8.70015003	     51.28954941	     51.28954941	      3.82821018	    -11.24529474	      0.61306852	      9.98767538	     -3.82276451	    -12.81980579	     17.64822303	     17.64822303	     14.47696355	     -3.60712691	     -5.90027236	    -10.31655712	      3.95775460	      1.08877419	      4.64831257	    -13.76475712	     -4.75451100	     57.52202766	     45.90001884	      0.00000000	      0.00000000	     23.75906649	    -16.34089809	      6.02523271	     32.78148158	     46.08488690	      0.00000000	      0.00000000
     48.36871429	     -4.07191378	     -3.50268977	     -2.35531915	      1.11653624	      0.93370845	      0.41812985	     34.68342409	     -8.52254568	     -8.77644722	     47.44439406	     47.44439406	      3.27849240	    -10.82559162	      0.58819445	      9.21268116	     -3.69652179	    -12.88572850	     17.27782740	     17.27782740	     14.75200602	     -3.54663900	     -6.15858597	    -10.29591646	      4.01495619	      0.92521811	      3.81075312	    -12.96766672	     -6.73781681	     51.22246897	     46.16456257	      0.00000000	      0.00000000	     25.26838482	    -17.01473163	      5.66294274	     34.17135943	     46.14787262	      0.00000000	      0.00000000
     48.37992857	     -4.09140509	     -3.51919656	     -2.41594447	      1.11607565	      0.93317832	      0.41814857	     34.56676559	     -8.18497619	     -9.03554391	     43.38774548	     43.38774548	      2.93563855	    -10.09857859	      1.21063760	      8.44638607	     -3.63856143	    -12.86939162	     16.95200112	     16.95200112	     15.17720287	     -3.45703450	     -6.28287068	    -10.36380651	      4.22793390	      1.07840651	      1.52141780	    -13.12286428	     -6.82078028	     49.12517425	     46.22464688	      0.00000000	      0.00000000	     26.88137508	    -17.37924315	      5.40051335	     35.38610629	     46.20576524	      0.00000000	      0.00000000
     48.39114286	     -4.09428714	     -3.35849937	     -2.57044506	      1.11577641	      0.93256128	      0.41840302	     34.34963260	     -7.91420892	     -9.19848256	     39.20561179	     39.20561179	      2.32299226	     -9.28292801	      1.02345182	      7.58116964	     -3.40889048	    -13.10288039	     16.50559036	     16.50559036	     15.48523763	     -3.21809100	     -6.54179835	    -10.36214570	      4.13839786	      1.07598349	      1.26700300	    -12.44719922	     -8.91663102	     41.87050701	     46.54344918	      0.00000000	      0.00000000	     27.93357509	    -17.99269473	      4.48138679	     37.90856040	     46.32956638	      0.00000000	      0.00000000
     48.40235714	     -4.14720003	     -3.31256190	     -2.69100155	      1.11565798	      0.93179027	      0.41872330	     34.01651244	     -7.51484763	     -9.58094059	     34.92680720	     34.92680720	      1.92315104	     -8.02516121	      1.74206848	      6.78384793	     -3.29937772	    -13.18602292	     16.11023602	     16.11023602	     15.86256899	     -3.08163785	     -6.64474996	    -10.32806607	      4.28804280	      1.30194401	     -0.92766457	    -12.61497016	     -9.05769534	     40.00934787	     46.59953556	      0.00000000	      0.00000000	     29.38022262	    -18.31272900	      4.13786122	     39.25552792	     46.39285887	      0.00000000	      0.00000000
     48.41357143	     -4.13149115	     -3.11422459	     -2.85605862	      1.11572101	      0.93095766	      0.41920061	     33.57261833	     -7.22533945	    -10.01437250	     30.73680653	     30.73680653	      1.54284278	     -6.33170099	      2.07221570	      5.79646701	     -3.01625466	    -13.48761846	     15.51647580	     15.51647580	     16.16102277	     -2.71581537	     -6.96443597	    -10.38381424	      4.16085903	      1.22898579	     -0.96169960	    -12.10316475	    -11.20701195	     33.19776358	     46.92890414	      0.00000000	      0.00000000	     29.80345805	    -18.91246850	      2.62409304	     42.87041642	     46.57109419	      0.00000000	      0.00000000
     48.42478571	     -4.09103676	     -3.03365227	     -2.99852730	      1.11604560	      0.93001713	      0.41984298	     32.96289887	     -6.75650864	    -10.56248305	     26.60198900	     26.60198900	      1.32683086	     -4.44647490	      2.96552163	      4.80337626	     -2.86789092	    -13.67178825	     15.00320719	     15.00320719	     16.52740925	     -2.48024233	     -7.08268020	    -10.44225289	      4.24123799	      1.70785172	     -3.09421228	    -12.31087338	    -11.44856342	     31.35858480	     46.99239952	      0.00000000	      0.00000000	     31.13534335	    -19.03589327	      2.20971996	     44.51624095	     46.63942254	      0.00000000	      0.00000000
     48.43600000	     -4.16797468	     -2.86038690	     -3.14967233	      1.11649165	      0.92872553	      0.42060801	     32.48354702	     -6.32278415	    -11.05196469	     22.72838902	     22.72838902	      1.08398920	     -2.51770928	      3.99455578	      3.92566895	     -2.62629611	    -13.88450338	     14.47639415	     14.47639415	     16.88328161	     -2.19342517	     -7.25039983	    -10.27582381	      4.19623818	      2.02301921	     -4.99107114	    -12.34273315	    -11.62499437	     29.58509038	     47.05668628	      0.00000000	      0.00000000	     32.27774680	    -19.20272944	      1.82979025	     46.15413398	     46.70239775	      0.00000000	      0.00000000
     48.44721429	     -4.09649447	     -2.69466002	     -3.30417866	      1.11727325	      0.92747415	      0.42156511	     31.83861643	     -5.88029912	    -11.65299244	     19.24921227	     19.24921227	      1.06679154	     -0.34513444	      5.18724574	      2.81157099	     -2.38407397	    -14.14533466	     13.85449579	     13.85449579	     17.23710966	     -1.81777186	     -7.44460120	    -10.30248988	      4.11620117	      2.53489301	     -6.80405293	    -12.37624928	    -11.81614347	     27.57618867	     47.13563648	      0.00000000	      0.00000000	     33.32496987	    -19.21164049	      1.39971693	     48.24711925	     46.77362705	      0.00000000	      0.00000000
     48.45842857	     -3.97535792	     -2.48846157	     -3.42803496	      1.11826905	      0.92613406	      0.42253294	     31.53403443	     -5.65862856	    -12.56476532	     17.06573749	     17.06573749	      2.75685010	      2.36972916	     10.41121855	      1.55570597	     -2.06267574	    -14.36272680	     13.04690418	     13.04690418	     17.35622646	     -1.47377092	     -8.09584990	    -10.37704165	      3.96532564	      1.66987930	     -6.33225296	    -12.22708812	    -13.89556237	     21.81680936	     47.54624164	      0.00000000	      0.00000000	     31.99475260	    -20.39450540	     -0.86468350	     54.42866641	     47.01918543	      0.00000000	      0.00000000
     48.46964286	     -3.89159570	     -2.37798736	     -3.55782449	      1.11942362	      0.92457424	      0.42387373	     30.97068891	     -5.14649025	    -13.09294244	     14.63116978	     14.63116978	      2.80114459	      3.94106262	     11.28250344	      0.43347596	     -1.89402238	    -14.53640914	     12.48621503	     12.48621503	     17.76125199	     -1.18626726	     -8.18720391	    -10.34246593	      3.93477170	      2.22274935	     -8.27572476	    -12.24184263	    -14.09070025	     20.72742754	     47.59346646	      0.00000000	      0.00000000	     33.07963373	    -20.30633016	     -1.20128244	     56.11021720	     47.07752293	      0.00000000	      0.00000000
     48.48085714	     -3.81442721	     -2.20169149	     -3.63552656	      1.12073082	      0.92284037	      0.42523984	     30.57615369	     -4.78748486	    -13.58157911	     12.98050916	     12.98050916	      2.98777551	      5.18898436	     12.08500399	     -0.66314795	     -1.66445555	    -14.69241580	     11.95667895	     11.95667895	     18.17971203	     -0.86064417	     -8.29330934	    -10.23371856	      3.82903202	      2.65040722	    -10.18782141	    -12.20038919	    -14.26725884	     19.76284976	     47.63564950	      0.00000000	      0.00000000	     33.93731761	    -20.27253240	     -1.54773421	     58.12623313	     47.13939917	      0.00000000	      0.00000000
     48.49207143	     -3.70213691	     -2.12398986	     -3.68754942	      1.12220453	      0.92115982	      0.42685508	     30.15708284	     -4.38293547	    -14.17307985	     11.88063654	     11.88063654	      3.34364658	      6.22917286	     12.88346898	     -1.83121457	     -1.55337903	    -14.81071368	     11.39154609	     11.39154609	     18.56973294	     -0.46303921	     -8.32591589	    -10.27464151	      3.76280195	      3.15153310	    -12.09971165	    -12.13611451	    -14.50267823	     18.95678172	     47.67845071	      0.00000000	      0.00000000	     34.45381247	    -20.13613817	     -1.95633741	     60.92065787	     47.21513325	      0.00000000	      0.00000000
     48.50328571	     -3.71248996	     -2.02737157	     -3.66895061	      1.12369207	      0.91919292	      0.42849851	     30.03647670	     -4.09980056	    -14.63254392	     11.54914400	     11.54914400	      3.87621990	      6.73994663	     13.98282341	     -2.72332937	     -1.48645136	    -14.91090874	     11.10352402	     11.10352402	     19.13461394	     -0.05777692	     -8.10776052	    -10.17144209	      3.69485266	      2.54875990	    -13.48475876	    -12.09312599	    -15.29898891	     19.08283370	     47.74725286	      0.00000000	      0.00000000	     33.40849730	    -21.04690592	     -3.18362374	     66.03785752	     47.37983097	      0.00000000	      0.00000000
     48.51450000	     -3.69574866	     -2.02175563	     -3.58649066	      1.12530389	      0.91729750	      0.43028119	     29.75827421	     -3.73384790	    -14.84734554	     11.37402576	     11.37402576	      3.85634937	      6.60357114	     13.81931053	     -3.60418425	     -1.54379846	    -14.88235126	     10.90313527	     10.90313527	     19.61703805	      0.17310633	     -8.02683786	    -10.00879559	      3.73483208	      2.94448745	    -15.21234588	    -11.93488499	    -15.40888769	     18.47293459	     47.76752681	      0.00000000	      0.00000000	     34.02055128	    -20.74588422	     -3.53475647	     68.05433388	     47.44392129	      0.00000000	      0.00000000
     48.52571429	     -3.70699406	     -2.01687068	     -3.44125998	      1.12706336	      0.91532399	      0.43217755	     29.50199977	     -3.42831535	    -14.91145726	     11.50432469	     11.50432469	      3.15542993	      6.03565657	     11.80133429	     -4.31813290	     -1.69851399	    -15.02443498	     11.02772252	     11.02772252	     20.49663699	      0.83159401	     -7.25744927	     -9.86725589	      3.75929384	      2.50848110	    -16.82707389	    -11.85576253	    -15.91226558	     19.39324887	     47.75116553	      0.00000000	      0.00000000	     33.25526336	    -21.26833427	     -4.58555428	     72.19791369	     47.58981373	      0.00000000	      0.00000000
     48.53692857	     -3.75317543	     -2.04207452	     -3.22884154	      1.12889859	      0.91333499	      0.43410767	     29.27803916	     -3.16381765	    -14.86561799	     11.88752917	     11.88752917	      1.98392381	      5.13303629	      8.72219606	     -4.91549132	     -1.93912717	    -15.12562116	     11.31048445	     11.31048445	     21.39897133	      1.48805135	     -6.38737575	     -9.65202272	      3.82242922	      2.34323022	    -18.40799696	    -11.68630863	    -16.06479074	     19.93709954	     47.70204886	      0.00000000	      0.00000000	     32.96920515	    -21.33307794	     -5.44499696	     75.31546553	     47.71450068	      0.00000000	      0.00000000
